<svg fill="#8d9cb4" height="512" viewBox="0 0 64 64" width="512" xmlns="http://www.w3.org/2000/svg"><path d="m35 48a3 3 0 1 0 -3 3 3 3 0 0 0 3-3zm-3 1a1 1 0 1 1 1-1 1 1 0 0 1 -1 1z"/><path d="m59 2h-54a3 3 0 0 0 -3 3v45a3 3 0 0 0 3 3h19.919l-2.4 3h-8.519a1 1 0 0 0 -1 1v4a1 1 0 0 0 1 1h36a1 1 0 0 0 1-1v-4a1 1 0 0 0 -1-1h-8.519l-2.4-3h19.919a3 3 0 0 0 3-3v-45a3 3 0 0 0 -3-3zm-10 56v2h-34v-2zm-23.919-2 2.4-3h9.04l2.4 3zm34.919-6a1 1 0 0 1 -1 1h-54a1 1 0 0 1 -1-1v-5h56zm-48-7v-31h36v31zm48 0h-10v-33h-40v33h-6v-35h56zm0-37h-56v-1a1 1 0 0 1 1-1h54a1 1 0 0 1 1 1z"/><path d="m6 10h2v8h-2z"/><path d="m6 20h2v2h-2z"/><path d="m58 40v-8h-2v7h-3v2h4a1 1 0 0 0 1-1z"/><path d="m24 16h10v2h-10z"/><path d="m24 20h6v2h-6z"/><path d="m36 16h10v2h-10z"/><path d="m24 26h13v2h-13z"/><path d="m32 20h14v2h-14z"/><path d="m39 26h7v2h-7z"/><path d="m24 32h22v2h-22z"/><path d="m24 36h13v2h-13z"/><path d="m39 36h7v2h-7z"/><path d="m17 19.586-1.293-1.293-1.414 1.414 2 2a1 1 0 0 0 1.414 0l5-5-1.414-1.414z"/><path d="m17 27.586-1.293-1.293-1.414 1.414 2 2a1 1 0 0 0 1.414 0l5-5-1.414-1.414z"/><path d="m17 36.586-1.293-1.293-1.414 1.414 2 2a1 1 0 0 0 1.414 0l5-5-1.414-1.414z"/></svg>