<svg fill="#8d9cb4" height="480pt" viewBox="-20 0 480 480" width="480pt" xmlns="http://www.w3.org/2000/svg"><path d="m0 40v432c0 4.417969 3.582031 8 8 8h256c4.417969 0 8-3.582031 8-8v-24h56c4.417969 0 8-3.582031 8-8v-172.6875l101.65625-101.65625c3.121094-3.125 3.121094-8.1875 0-11.3125l-32-32c-3.125-3.121094-8.1875-3.121094-11.3125 0l-58.34375 58.34375v-140.6875c-.027344-22.082031-17.917969-39.9726562-40-40h-256c-22.082031.0273438-39.9726562 17.917969-40 40zm232 308.6875-20.6875-20.6875 132.6875-132.6875 20.6875 20.6875zm-14.015625 8.617188-26.785156 11.496093 11.464843-26.753906zm102.015625 74.695312h-48v-100.6875l48-48zm80-292.6875 20.6875 20.6875-44.6875 44.6875-20.6875-20.6875zm-104-123.3125c13.253906 0 24 10.746094 24 24v156.6875l-48 48v-204.6875c0-13.253906 10.746094-24 24-24zm-40 24v220.6875l-61.65625 61.65625c-.648438.777344-1.214844 1.617188-1.695312 2.503906l-.0625.152344-23.113282 53.9375c-9.964844 8-20.738281 14.933594-32.144531 20.6875 1.605469-4.046875 3.496094-7.972656 5.664063-11.746094 17.464843-31.414062 21.0625-47.472656 12.441406-55.421875-9.128906-8.441406-24.882813.277344-31.5625 4.679688-3.199219 1.765625-19.558594 11.785156-42.269532 42.0625-11.539062 15.386719-18.027343 15.9375-19.824218 15.710937-3.273438-.382812-5.777344-4.574218-6.402344-6.015625l-14.78125 6.136719c3.285156 8.148438 10.476562 14.078125 19.101562 15.753906 11.199219 1.375 22.535157-5.761718 34.703126-21.984375 22.195312-29.601562 37.105468-37.601562 37.175781-37.601562.300781-.148438.589843-.316407.867187-.503907 3.523438-2.355468 7.367188-4.199218 11.414063-5.472656-.390625 3.707032-2.816407 13.273438-14.847657 34.9375-7.488281 13.472656-13.246093 26.929688-4.800781 34.105469 2.101563 1.914063 4.875 2.914063 7.714844 2.773437 7.359375 0 21.230469-4.902343 48.140625-26.039062l54.945312-23.542969.152344-.066406c.886719-.480469 1.726563-1.046875 2.503906-1.695313l18.335938-18.382812v116.6875h-240v-424c0-13.253906 10.746094-24 24-24h224c-5.207031 6.917969-8.015625 15.34375-8 24zm0 0"/><path d="m224 432h16v16h-16zm0 0"/><path d="m192 432h16v16h-16zm0 0"/><path d="m48 192h160v16h-160zm0 0"/><path d="m48 160h160v16h-160zm0 0"/><path d="m48 256h160v16h-160zm0 0"/><path d="m48 288h144v16h-144zm0 0"/><path d="m48 224h160v16h-160zm0 0"/><path d="m95.144531 106.457031-6.90625 27.605469c-.777343 3.039062.292969 6.25 2.730469 8.214844 2.441406 1.96875 5.804688 2.328125 8.605469.921875l28.425781-14.253907 28.425781 14.253907c2.792969 1.394531 6.144531 1.039062 8.578125-.917969 2.4375-1.953125 3.511719-5.148438 2.757813-8.175781l-6.90625-27.609375 20.800781-20.800782c2.035156-2.039062 2.820312-5.015624 2.050781-7.792968s-2.976562-4.921875-5.769531-5.621094l-28.433594-7.105469-14.304687-28.75c-1.503907-2.523437-4.222657-4.070312-7.160157-4.070312-2.933593 0-5.65625 1.546875-7.160156 4.070312l-14.34375 28.710938-28.429687 7.101562c-2.796875.699219-5 2.847657-5.769531 5.625-.773438 2.777344.011718 5.753907 2.046874 7.792969zm18.792969-26.695312c2.269531-.566407 4.175781-2.09375 5.222656-4.1875l8.839844-17.6875 8.839844 17.6875c1.046875 2.09375 2.953125 3.621093 5.222656 4.1875l18.289062 4.574219-14.007812 14.007812c-1.984375 1.984375-2.785156 4.867188-2.105469 7.59375l3.785157 15.125-16.449219-8.222656c-2.25-1.125-4.898438-1.125-7.148438 0l-16.425781 8.222656 3.785156-15.125c.679688-2.726562-.121094-5.609375-2.105468-7.59375l-14.007813-14.007812zm0 0"/></svg>