<svg fill="#8d9cb4" height="480pt" viewBox="0 -16 480 480" width="480pt" xmlns="http://www.w3.org/2000/svg"><path d="m472 288.039062h-192v-56h120c24.027344.003907 46.03125-13.453124 56.976562-34.839843 10.949219-21.390625 8.992188-47.105469-5.058593-66.59375-14.054688-19.488281-37.839844-29.464844-61.589844-25.832031-7.355469-32.992188-36.527344-56.527344-70.328125-56.734376-13.925781 0-27.546875 4.058594-39.199219 11.679688-17.328125-42.492188-62.324219-66.769531-107.351562-57.917969-45.03125 8.851563-77.492188 48.347657-77.449219 94.238281 0 3.40625.1875 6.808594.566406 10.191407-24.027344-6.457031-49.621094 1.601562-65.621094 20.65625-16 19.058593-19.503906 45.660156-8.984374 68.210937 10.519531 22.546875 33.15625 36.957032 58.039062 36.941406h96v56h-168c-4.417969 0-8 3.582032-8 8v144c0 4.417969 3.582031 8 8 8h464c4.417969 0 8-3.582031 8-8v-144c0-4.417968-3.582031-8-8-8zm-208 0h-32v-56h32zm-184-72c-20.085938.015626-38.058594-12.472656-45.042969-31.304687s-1.507812-40.019531 13.726563-53.109375c15.238281-13.085938 37.011718-15.300781 54.574218-5.554688 2.808594 1.5625 6.28125 1.289063 8.8125-.691406 2.53125-1.980468 3.632813-5.285156 2.792969-8.386718-7.664062-27.605469.035157-57.203126 20.179688-77.578126 20.144531-20.371093 49.652343-28.40625 77.34375-21.054687 27.691406 7.347656 49.328125 28.957031 56.71875 56.640625.730469 2.691406 2.8125 4.804688 5.492187 5.582031 2.679688.777344 5.570313.101563 7.625-1.78125 15.6875-14.4375 38.222656-18.691406 58.09375-10.96875 19.867188 7.722657 33.613282 26.078125 35.4375 47.320313.207032 2.402344 1.484375 4.582031 3.480469 5.933594 2 1.351562 4.496094 1.730468 6.804687 1.035156 18.035157-5.492188 37.613282.085937 50.050782 14.25 12.4375 14.167968 15.429687 34.304687 7.648437 51.476562-7.777343 17.167969-24.886719 28.199219-43.738281 28.191406h-120v-25.472656c11.019531-3.894531 17.632812-15.164062 15.65625-26.683594-1.976562-11.523437-11.96875-19.941406-23.65625-19.941406s-21.679688 8.417969-23.65625 19.941406c-1.976562 11.519532 4.636719 22.789063 15.65625 26.683594v25.472656h-32v-81.472656c11.019531-3.894531 17.632812-15.164062 15.65625-26.683594-1.976562-11.523437-11.96875-19.941406-23.65625-19.941406s-21.679688 8.417969-23.65625 19.941406c-1.976562 11.519532 4.636719 22.789063 15.65625 26.683594v81.472656h-24v-24c0-2.121093-.84375-4.15625-2.34375-5.65625l-22.089844-22.085937c1.792969-9.945313-2.832031-19.945313-11.570312-25.015625-8.738282-5.070312-19.714844-4.125-27.460938 2.359375-7.742187 6.488281-10.59375 17.132813-7.132812 26.621094 3.460937 9.492187 12.496094 15.800781 22.597656 15.777343 5.542969-.023437 10.902344-1.980468 15.152344-5.535156l16.847656 16.847656v20.6875zm192-40c-4.417969 0-8-3.582031-8-8 0-4.417968 3.582031-8 8-8s8 3.582032 8 8c0 4.417969-3.582031 8-8 8zm-48-56c-4.417969 0-8-3.582031-8-8 0-4.417968 3.582031-8 8-8s8 3.582032 8 8c0 4.417969-3.582031 8-8 8zm-80 48c-4.417969 0-8-3.582031-8-8 0-4.417968 3.582031-8 8-8s8 3.582032 8 8c0 4.417969-3.582031 8-8 8zm48 64h24v56h-24zm272 200h-448v-128h160v56h-25.472656c-3.339844-9.585937-12.378906-16.007812-22.527344-16.007812s-19.1875 6.421875-22.527344 16.007812h-49.472656c-4.417969 0-8 3.582032-8 8 0 4.417969 3.582031 8 8 8h49.472656c3.339844 9.585938 12.378906 16.007813 22.527344 16.007813s19.1875-6.421875 22.527344-16.007813h33.472656c4.417969 0 8-3.582031 8-8v-64h24v88c0 4.417969 3.582031 8 8 8h153.472656c3.894532 11.019532 15.164063 17.632813 26.683594 15.65625 11.523438-1.976562 19.941406-11.96875 19.941406-23.65625s-8.417968-21.675781-19.941406-23.652343c-11.519531-1.976563-22.789062 4.632812-26.683594 15.652343h-145.472656v-80h32v40c0 4.417969 3.582031 8 8 8h57.472656c3.339844 9.585938 12.378906 16.007813 22.527344 16.007813s19.1875-6.421875 22.527344-16.007813h25.472656c4.417969 0 8-3.582031 8-8 0-4.417968-3.582031-8-8-8h-25.472656c-3.339844-9.585937-12.378906-16.007812-22.527344-16.007812s-19.1875 6.421875-22.527344 16.007812h-49.472656v-32h184zm-328-64c0 4.417969-3.582031 8-8 8s-8-3.582031-8-8c0-4.417968 3.582031-8 8-8s8 3.582032 8 8zm256 24c0-4.417968 3.582031-8 8-8s8 3.582032 8 8c0 4.417969-3.582031 8-8 8s-8-3.582031-8-8zm-48-48c0-4.417968 3.582031-8 8-8s8 3.582032 8 8c0 4.417969-3.582031 8-8 8s-8-3.582031-8-8zm0 0"/></svg>