<?xml version="1.0" encoding="iso-8859-1"?>
<!-- Generator: Adobe Illustrator 19.0.0, SVG Export Plug-In . SVG Version: 6.00 Build 0)  -->
<svg fill="#8d9cb4" version="1.1" id="Capa_1" xmlns="http://www.w3.org/2000/svg" xmlns:xlink="http://www.w3.org/1999/xlink" x="0px" y="0px"
	 viewBox="0 0 482.024 482.024" style="enable-background:new 0 0 482.024 482.024;" xml:space="preserve">
<g>
	<g>
		<circle cx="82.024" cy="425.012" r="8"/>
	</g>
</g>
<g>
	<g>
		<path d="M346.184,417.012h-0.08c-4.403,0.022-7.96,3.597-7.96,8c0,4.418,3.582,8,8,8s8-3.582,8-8
			C354.144,420.609,350.587,417.034,346.184,417.012z"/>
	</g>
</g>
<g>
	<g>
		<path d="M458.024,49.012h-40v16h-30.552l-16,80H0l43.624,192h294.4v48h-296v16h8.208c-5.294,6.883-8.179,15.316-8.208,24
			c0,22.091,17.909,40,40,40s40-17.909,40-40c-0.029-8.684-2.914-17.117-8.208-24h200.416c-5.294,6.883-8.179,15.316-8.208,24
			c0.005,22.091,17.917,39.996,40.008,39.992c22.091-0.005,39.996-17.917,39.992-40.008c-0.004-19.005-13.379-35.383-32-39.184
			v-56.064l31.872-175.288l14.68-73.448h17.448v16h40c13.255,0,24-10.745,24-24S471.279,49.012,458.024,49.012z M82.024,449.012
			c-13.255,0-24-10.745-24-24s10.745-24,24-24s24,10.745,24,24S95.279,449.012,82.024,449.012z M370.024,425.012
			c0,13.255-10.745,24-24,24s-24-10.745-24-24s10.745-24,24-24S370.024,411.757,370.024,425.012z M365.528,177.012h-27.504v16
			h24.592l-23.272,128H56.424l-29.104-128h6.704v-16H23.68l-3.632-16h348.376L365.528,177.012z M458.024,81.012h-24v-16h24
			c4.418,0,8,3.582,8,8S462.442,81.012,458.024,81.012z"/>
	</g>
</g>
<g>
	<g>
		<path d="M82.024,29.7L22.712,89.012l43.312,43.312l59.312-59.312L82.024,29.7z M45.336,89.012l36.688-36.688l20.688,20.688
			L66.024,109.7L45.336,89.012z"/>
	</g>
</g>
<g>
	<g>
		<path d="M138.024,81.012v48h128v-48H138.024z M250.024,113.012h-96v-16h96V113.012z"/>
	</g>
</g>
<g>
	<g>
		<path d="M282.024,17.012v112h64v-112H282.024z M330.024,113.012h-32v-80h32V113.012z"/>
	</g>
</g>
<g>
	<g>
		<rect x="138.024" y="49.012" width="48" height="16"/>
	</g>
</g>
<g>
	<g>
		<path d="M26.184,113.012h-0.08c-4.44,0.022-8.022,3.64-8,8.08s3.64,8.022,8.08,8c4.44-0.022,8.022-3.64,8-8.08
			C34.162,116.603,30.593,113.034,26.184,113.012z"/>
	</g>
</g>
<g>
	<g>
		<path d="M258.184,49.012h-0.08c-4.44,0.022-8.022,3.64-8,8.08s3.64,8.022,8.08,8c4.44-0.022,8.022-3.64,8-8.08
			C266.162,52.603,262.593,49.034,258.184,49.012z"/>
	</g>
</g>
<g>
	<g>
		<rect x="82.024" y="289.012" width="232" height="16"/>
	</g>
</g>
<g>
	<g>
		<rect x="50.024" y="177.012" width="32" height="16"/>
	</g>
</g>
<g>
	<g>
		<rect x="98.024" y="177.012" width="32" height="16"/>
	</g>
</g>
<g>
	<g>
		<rect x="146.024" y="177.012" width="32" height="16"/>
	</g>
</g>
<g>
	<g>
		<rect x="194.024" y="177.012" width="32" height="16"/>
	</g>
</g>
<g>
	<g>
		<rect x="242.024" y="177.012" width="32" height="16"/>
	</g>
</g>
<g>
	<g>
		<rect x="290.024" y="177.012" width="32" height="16"/>
	</g>
</g>
<g>
</g>
<g>
</g>
<g>
</g>
<g>
</g>
<g>
</g>
<g>
</g>
<g>
</g>
<g>
</g>
<g>
</g>
<g>
</g>
<g>
</g>
<g>
</g>
<g>
</g>
<g>
</g>
<g>
</g>
</svg>
