<svg width="2560" height="965" viewBox="0 0 2560 965" fill="none" xmlns="http://www.w3.org/2000/svg">
<mask id="mask0" mask-type="alpha" maskUnits="userSpaceOnUse" x="0" y="0" width="2560" height="965">
<rect width="2560" height="965" fill="#1D1F2A"/>
</mask>
<g mask="url(#mask0)">
<path d="M8737.62 2749C-2368.05 643.5 18696.4 484.735 5849.86 -1462M8280.86 2694.94C-2397.68 630.725 17856.6 475.169 5504.08 -1433.49M7841.67 2641.92C-2426.14 618.179 17049.1 465.562 5171.78 -1405.56M7419.38 2589.94C-2453.42 605.903 16272.7 456.267 4852.2 -1378.14M7013.32 2538.99C-2479.86 593.836 15526.2 447.159 4544.85 -1351.31M6622.88 2489.03C-2505.18 582.103 14808.3 438.302 4249.35 -1324.99M6247.46 2440.06C-2529.51 570.432 14118.1 429.445 3965.23 -1299.19M5886.49 2392.04C-2552.92 559.074 13454.4 420.858 3692.03 -1273.89M5539.38 2344.96C-2575.42 547.945 12816.2 412.439 3429.33 -1249.07M5205.65 2298.74C-2597.05 537.025 12202.6 404.186 3176.74 -1224.75M4884.73 2253.57C-2617.86 526.333 11612.5 396.079 2933.86 -1200.91M4576.17 2209.22C-2637.87 515.83 11045.2 388.138 2700.34 -1177.5M4279.46 2165.73C-2657.1 505.555 10499.7 380.365 2475.77 -1154.58M3994.18 2123.09C-2675.61 495.426 9975.17 372.737 2259.85 -1132.24M3719.85 2081.28C-2693.38 485.59 9470.82 365.255 2052.25 -1110.12M3456.09 2040.31C-2710.49 475.899 8985.85 357.919 1852.63 -1088.53M3202.48 2000.13C-2726.93 466.395 8519.55 350.729 1660.67 -1067.36M2958.62 1960.74C-2742.74 457.079 8071.26 343.685 1476.2 -1046.6M2724.11 1922.12C-2757.98 447.93 7640.07 336.766 1298.64 -1026.24M2498.65 1884.25C-2772.56 438.99 7225.52 329.992 1128 -1006.3M2281.86 1847.14C-2786.63 430.216 6826.92 323.344 963.929 -986.727M2073.4 1810.75C-2800.15 421.608 6443.66 316.779 806.147 -967.553M1872.96 1775.07C-2813.13 413.168 6075.13 310.527 654.451 -948.755M1680.24 1740.2C-2825.64 404.894 5720.79 304.275 508.588 -930.331M1494.95 1705.82C-2837.66 396.787 5380.05 298.023 368.331 -912.263M1316.73 1672.2C-2849.2 388.826 5052.43 292.041 233.471 -894.548M1145.38 1639.23C-2860.31 381.032 4737.41 286.144 103.8 -877.167M980.64 1606.93C-2871 373.383 4434.51 280.371 -20.8917 -860.14M822.234 1575.25C-2881.27 365.901 4143.27 274.702 -140.791 -843.446M669.912 1544.17C-2891.21 358.544 3863.21 269.138 -256.063 -827.086M523.446 1513.73C-2900.63 351.354 3593.93 263.698 -366.898 -811.039M382.626 1483.86C-2909.78 344.289 3335 258.425 -473.482 -795.304M247.203 1454.68C-2918.55 337.433 3086.04 253.173 -575.877 -779.819M117.011 1425.92C-2926.99 330.576 2846.66 248.005 -674.5 -764.752M-8.18077 1397.79C-2935.09 323.928 2616.49 242.941 -769.269 -749.934M-128.559 1370.22C-2942.91 317.405 2395.13 238.022 -860.371 -735.408M-244.311 1343.17C-2950.41 311.007 2182.34 233.166 -947.971 -721.09M-355.604 1316.66C-2957.64 304.734 1977.71 228.436 -1032.2 -707.189M-462.625 1290.67C-2964.58 298.648 1780.94 223.788 -1113.19 -693.497M-565.52 1265.2C-2971.25 292.562 1591.76 219.224 -1191 -680.055M-664.478 1240.21C-2977.67 286.664 1409.83 214.66 -1266.01 -666.904" stroke="url(#paint0_radial)" stroke-width="2" stroke-linecap="round" stroke-dasharray="0.1 20"/>
</g>
<defs>
<radialGradient id="paint0_radial" cx="0" cy="0" r="1" gradientUnits="userSpaceOnUse" gradientTransform="translate(1288.5 436) rotate(-90) scale(463 945.341)">
<stop offset="0.472021" stop-color="#222431"/>
<stop offset="0.746835" stop-color="#6F7598"/>
<stop offset="0.958231" stop-color="#222431"/>
</radialGradient>
</defs>
</svg>
