<?xml version="1.0" encoding="iso-8859-1"?>
<!-- Generator: Adobe Illustrator 19.0.0, SVG Export Plug-In . SVG Version: 6.00 Build 0)  -->
<svg fill="#8d9cb4" version="1.1" id="Capa_1" xmlns="http://www.w3.org/2000/svg" xmlns:xlink="http://www.w3.org/1999/xlink" x="0px" y="0px"
	 viewBox="0 0 480.204 480.204" style="enable-background:new 0 0 480.204 480.204;" xml:space="preserve">
<g>
	<g>
		<path d="M480,312.1c-4.267-85.227-74.667-152.106-160-152c-22.031,0.026-43.819,4.602-64,13.44V8.1c0-4.418-3.582-8-8-8h-80
			c-4.418,0-8,3.582-8,8v32H88c-4.418,0-8,3.582-8,8v40H8c-4.418,0-8,3.582-8,8v224c0,4.418,3.582,8,8,8h152.4
			c4.418,88.255,79.545,156.218,167.8,151.8S484.418,400.355,480,312.1z M80,312.1H16v-208h64V312.1z M160,312.1H96v-256h64V312.1z
			 M176,16.1h64v165.68c-27.774,16.075-50.073,40.129-64,69.04V16.1z M320,464.1c-79.518-1.35-142.885-66.906-141.535-146.423
			C179.73,243.15,237.659,181.906,312,176.5v143.6c0,4.418,3.582,8,8,8h144C459.75,404.489,396.507,464.218,320,464.1z M328,312.1
			V176.5c73.257,3.957,131.827,62.355,136,135.6H328z"/>
	</g>
</g>
<g>
	<g>
		<path d="M431.44,53.06c-1.238-3.014-4.181-4.976-7.44-4.96h-56v16h36.72L352,116.82l-26.32-26.4
			c-3.111-3.137-8.177-3.158-11.314-0.046c-0.016,0.015-0.031,0.031-0.046,0.046l-40,40l11.36,11.36l34.32-34.4l26.32,26.4
			c3.111,3.137,8.177,3.158,11.314,0.046c0.016-0.015,0.031-0.031,0.046-0.046L416,75.38v36.72h16v-56
			C432.055,55.057,431.863,54.015,431.44,53.06z"/>
	</g>
</g>
<g>
	<g>
		<rect x="16" y="360.1" width="128" height="16"/>
	</g>
</g>
<g>
	<g>
		<rect x="16" y="392.1" width="128" height="16"/>
	</g>
</g>
<g>
	<g>
		<rect x="16" y="424.1" width="128" height="16"/>
	</g>
</g>
<g>
</g>
<g>
</g>
<g>
</g>
<g>
</g>
<g>
</g>
<g>
</g>
<g>
</g>
<g>
</g>
<g>
</g>
<g>
</g>
<g>
</g>
<g>
</g>
<g>
</g>
<g>
</g>
<g>
</g>
</svg>
